<svg width="120" height="80" viewBox="0 0 120 80" fill="none" xmlns="http://www.w3.org/2000/svg">
<path d="M18.4278 0.809701C15.5861 2.23055 13.7683 4.67525 13.4131 7.47516L13.3086 8.39453L14.5414 7.45426C16.8816 5.65731 19.1383 3.02455 20.2457 0.851491C20.8098 -0.276831 20.6218 -0.276831 18.4278 0.809701Z" fill="#FA0005"/>
<path d="M95.3842 0.433645C95.5932 1.14407 96.8677 3.02461 98.0379 4.40367C99.0617 5.59467 102.321 8.45727 102.488 8.311C102.677 8.12295 102.091 5.82452 101.59 4.77977C100.608 2.77387 98.1632 0.809752 95.7394 0.0784324C95.2797 -0.0469367 95.2588 -0.0260419 95.3842 0.433645Z" fill="#FA0005"/>
<path d="M10.6552 5.32294C9.10897 6.76469 8.71196 7.99748 8.81644 10.9437C8.90002 13.0122 9.42239 15.6659 9.81939 16.1256C10.0283 16.3554 14.9804 12.3227 16.5684 10.672C17.843 9.33475 18.5743 7.97659 18.5952 7.01542C18.5952 6.59753 18.4908 6.45126 18.1982 6.45126C17.5296 6.45126 15.461 8.14375 13.0163 10.7138C11.7208 12.0511 10.6552 13.1167 10.6552 13.054C10.6552 12.9914 10.885 12.26 11.1567 11.4242C11.9507 9.06312 12.3686 6.702 12.2223 5.57368C12.1387 5.00952 11.9925 4.52894 11.888 4.44536C11.7835 4.38267 11.2402 4.77967 10.6552 5.32294Z" fill="#FA0005"/>
<path d="M103.763 4.8216C103.408 6.20066 103.805 9.02146 104.703 11.5079C104.954 12.1557 105.1 12.7825 105.079 12.9079C105.038 13.0124 104.432 12.4482 103.742 11.6333C102.238 9.85725 99.2497 7.18271 98.1631 6.63945L97.3691 6.24244V7.07824C97.3691 8.8752 98.6019 10.3796 102.844 13.8482C104.473 15.1854 105.873 16.272 105.957 16.272C106.145 16.272 106.939 12.9079 107.085 11.3408C107.357 8.81251 106.521 6.32602 104.975 5.07233C104.494 4.67533 104.076 4.36191 104.014 4.36191C103.951 4.36191 103.847 4.57086 103.763 4.8216Z" fill="#FA0005"/>
<path d="M20.2676 17.5047C20.2676 28.3282 20.3721 29.4147 21.5004 31.7968C22.6914 34.3041 25.4495 36.2683 28.4166 36.7279C34.2253 37.6682 39.1774 35.8713 41.058 32.1311C42.3116 29.6864 42.2699 30.0207 42.3534 18.4032L42.437 7.70499H38.7804H35.1447L35.0611 17.3584L34.9984 27.0327L34.4761 28.0775C33.8492 29.3312 32.9508 29.8535 31.4463 29.8535C30.0464 29.8326 28.7509 29.2267 28.2703 28.3491C27.9151 27.7223 27.8942 26.8656 27.8315 17.6718L27.7688 7.70499H24.0287H20.2676V17.5047Z" fill="black"/>
<path d="M46.9095 8.89608C46.8259 9.56471 46.805 15.9585 46.8259 23.1046L46.9095 36.1221H56.4793H66.0283L65.9865 32.7162L65.9238 29.3312L60.1359 29.2686L54.3271 29.2268V27.0328V24.8389H59.0285H63.7298V21.6001V18.3614H59.0285H54.3271V16.3764V14.3914H59.9688H65.6104V11.0482V7.70507H56.3331H47.0557L46.9095 8.89608Z" fill="black"/>
<path d="M69.5801 21.9137V36.1222H72.9233H76.2664L76.3082 26.8658C76.3709 18.2989 76.3918 17.7556 76.6425 19.4063C76.8097 20.3883 77.4156 23.4808 78.0216 26.3016C78.6275 29.1224 79.3589 32.4865 79.6305 33.7819L80.132 36.1431L82.7438 36.0804L85.3557 36.0177L85.9199 33.3014C86.2333 31.7969 87.09 27.6598 87.8004 24.1076L89.1168 17.6302L89.1794 26.8658L89.2212 36.1222H92.5644H95.9076V21.9137V7.70517H91.3525H86.7974L85.0841 15.1646C84.1438 19.2809 83.2244 23.3345 83.0782 24.1703C82.911 25.0061 82.7438 25.7374 82.6812 25.8001C82.6394 25.8628 82.514 25.4449 82.4513 24.9016C82.3677 24.3584 81.5946 20.7436 80.717 16.8989C79.8395 13.0543 79.0246 9.39765 78.9201 8.7917L78.7111 7.70517H74.1352H69.5801V21.9137Z" fill="black"/>
<path d="M6.3313 11.5288C4.2836 14.5795 5.20298 20.3465 8.37899 24.5881L9.21479 25.6956L9.86253 24.4837C10.2177 23.815 10.9282 22.7076 11.4505 22.0181C11.9938 21.3285 12.8714 20.1584 13.4564 19.4062C14.8564 17.5675 15.2952 16.5227 15.2116 15.1854C15.1698 14.6004 15.0445 14.078 14.8982 14.0362C14.5848 13.9318 11.6177 16.7526 10.1968 18.5077C9.5909 19.239 9.04763 19.7614 8.96405 19.6778C8.71331 19.4271 8.19094 17.2331 7.9402 15.3735C7.64767 13.2422 7.1253 10.8393 6.93725 10.8393C6.85367 10.8393 6.58204 11.1527 6.3313 11.5288Z" fill="#FA0005"/>
<path d="M108.758 11.0902C108.508 11.8633 108.215 13.2423 107.923 15.2273C107.546 17.6303 107.003 19.8242 106.794 19.8242C106.711 19.8242 106.418 19.5108 106.146 19.1347C105.102 17.7138 103.493 15.9796 102.176 14.893C100.672 13.6393 100.547 13.6811 100.526 15.3527C100.505 16.5437 101.403 18.2153 103.493 20.869C104.433 22.0809 105.499 23.6062 105.833 24.2748C106.188 24.9226 106.523 25.4658 106.606 25.4658C106.878 25.4658 108.382 23.3137 109.03 22.0182C110.221 19.6153 110.597 17.9855 110.493 15.4781C110.43 13.5558 110.325 13.0961 109.845 12.1558C109.239 10.9857 108.905 10.6514 108.758 11.0902Z" fill="#FA0005"/>
<path d="M4.0328 22.9582C4.11638 24.6925 4.26264 25.5074 4.74322 26.8238C5.51633 28.9759 6.93718 31.1281 8.67146 32.7579C9.92515 33.928 12.0355 35.4951 12.3489 35.4951C12.4116 35.4951 12.537 34.4922 12.5997 33.2385C12.6833 32.0057 12.9758 29.8744 13.2683 28.4953C13.5609 27.1163 13.8534 24.9014 13.9161 23.5851L14.0623 21.1821L13.6026 21.6C12.8713 22.2478 11.5549 24.3164 11.0535 25.6327C10.7609 26.4268 10.552 27.5551 10.4684 29.0177L10.3221 31.2117L9.92515 30.2714C8.9013 27.8058 6.35213 23.6895 4.36712 21.2866L3.94922 20.7642L4.0328 22.9582Z" fill="#FA0005"/>
<path d="M110.283 22.8957C108.298 25.5493 106.94 27.8268 106.209 29.7074L105.624 31.2118L105.477 29.394C105.331 27.4716 104.892 25.6538 104.265 24.421C103.743 23.3971 102.155 21.2868 101.904 21.2868C101.57 21.2868 101.904 25.0269 102.489 28.0358C102.761 29.5193 103.116 31.776 103.242 33.0506C103.367 34.346 103.513 35.4326 103.555 35.4744C103.68 35.6206 106.292 33.6147 107.462 32.4446C109.468 30.4596 110.826 28.1612 111.432 25.7791C111.788 24.421 112.122 20.8689 111.913 20.8689C111.85 20.8689 111.098 21.7882 110.283 22.8957Z" fill="#FA0005"/>
<path d="M14.8343 30.9195C14.5 32.2777 14.688 36.185 15.1477 37.8566C15.3358 38.5253 15.4611 39.173 15.4193 39.2984C15.3358 39.5282 10.133 35.6836 7.31215 33.3224C4.95103 31.3374 4.97192 31.3374 5.30624 32.3195C6.93604 36.8955 10.4882 40.1759 15.7746 41.9311C16.8193 42.2863 18.0939 42.6206 18.6581 42.7042L19.6401 42.8296L19.2222 42.1192C18.5536 40.9699 17.7805 38.5461 17.2163 35.8298C16.5477 32.5284 15.6701 29.8539 15.2522 29.8539C15.1477 29.8539 14.9597 30.3345 14.8343 30.9195Z" fill="#FA0005"/>
<path d="M100.044 30.794C99.731 31.3999 99.1459 33.4476 98.6653 35.6416C97.8922 39.0684 97.0564 41.6384 96.4923 42.3488C96.1371 42.7667 96.3878 42.8294 97.6833 42.5787C101.528 41.8683 105.352 39.7788 107.817 37.0207C108.799 35.9132 110.304 33.2387 110.659 31.9432C110.784 31.4417 110.784 31.4417 110.408 31.7552C107.19 34.5133 100.546 39.5907 100.379 39.4236C100.337 39.3609 100.483 38.5878 100.734 37.6684C101.298 35.5371 101.382 31.588 100.901 30.4806L100.567 29.7493L100.044 30.794Z" fill="#FA0005"/>
<path d="M94.3827 37.8772C93.9439 38.5458 92.9619 40.092 92.1888 41.3248C90.4545 44.1247 89.4098 45.5456 88.1143 46.9247L87.1113 47.9903L88.7202 48.1366C93.4425 48.5962 98.6035 47.3217 102.114 44.8561C103.388 43.9576 105.603 41.9935 105.478 41.8472C105.436 41.8054 102.323 42.8084 98.5617 44.083C94.8006 45.3366 91.6246 46.3605 91.5201 46.3605C91.3948 46.3605 91.8127 45.7337 92.4395 44.9814C94.4036 42.5994 95.3648 40.1129 95.2394 37.7727L95.1767 36.6444L94.3827 37.8772Z" fill="#FA0005"/>
<path d="M20.5606 37.4596C20.1427 39.1312 21.5426 42.7878 23.4023 44.9818C23.9873 45.6504 24.4261 46.2564 24.3634 46.2982C24.2381 46.4235 12.4743 42.558 10.4475 41.7431C10.0296 41.5759 10.1132 41.7222 10.8654 42.4953C14.7518 46.528 21.0203 48.7011 27.0171 48.1369L28.626 47.9906L27.5604 46.8205C26.4738 45.6295 24.5724 42.8923 22.6083 39.6745C22.0023 38.6924 21.3337 37.6686 21.1247 37.3761L20.7277 36.8537L20.5606 37.4596Z" fill="#FA0005"/>
<path d="M63.9375 38.8593C63.9375 39.0264 64.1256 39.2772 64.3554 39.4234C64.5852 39.5697 64.7733 39.5906 64.7733 39.507C64.7733 39.4025 64.5852 39.1518 64.3554 38.9429C64.042 38.6503 63.9375 38.6294 63.9375 38.8593Z" fill="black"/>
<path d="M64.7949 40.3428C64.774 40.6771 64.5442 40.7189 63.1651 40.7189C61.7652 40.7398 61.5771 40.7815 61.9114 41.0114C62.1204 41.1785 62.2667 41.5547 62.2667 41.9517C62.2667 42.4949 62.1831 42.5994 61.7652 42.5994C61.3055 42.5994 61.2428 42.4949 61.1801 41.7009C61.1383 40.9905 61.0339 40.8233 60.6995 40.8233C60.0727 40.8233 60.0309 41.6382 60.6369 42.0561C61.0339 42.3487 61.0548 42.4322 60.8249 42.5994C60.5742 42.7457 60.5533 42.8292 60.804 43.1218C60.9921 43.3516 61.1383 43.3934 61.3055 43.2262C61.41 43.1218 61.6816 43.0173 61.8906 43.0173C62.1831 43.0173 62.2667 43.1845 62.2667 43.7277C62.2667 44.1247 62.3711 44.5217 62.4756 44.5844C62.601 44.668 62.6846 44.062 62.6846 42.9337V41.1368H63.8547C64.8367 41.1368 65.0039 41.1994 64.9412 41.492C64.8994 41.7427 64.6487 41.889 64.2099 41.9308C63.7711 41.9725 63.4995 42.1397 63.4159 42.3904C63.2905 42.8083 63.7502 44.1247 64.1263 44.3546C64.4397 44.5635 64.3979 44.2501 64.0427 43.7695C63.8756 43.5397 63.7293 43.1427 63.7293 42.871C63.7293 42.474 63.8338 42.3904 64.3561 42.3904C64.9621 42.3904 64.983 42.4113 64.983 43.4143C64.983 43.9993 65.0875 44.5217 65.1919 44.5844C65.3173 44.668 65.4009 44.062 65.4009 42.9337C65.4009 41.4293 65.4636 41.1576 65.777 41.0741C66.0695 41.0114 66.0277 40.9487 65.5889 40.7606C65.2755 40.6353 64.983 40.4054 64.9203 40.2592C64.8367 40.092 64.7949 40.1129 64.7949 40.3428ZM61.013 41.6173C61.013 42.0352 60.9921 42.0352 60.6787 41.7218C60.4906 41.5338 60.407 41.283 60.4906 41.1576C60.6995 40.8233 61.013 41.095 61.013 41.6173Z" fill="black"/>
<path d="M37.6748 41.0534C37.6121 41.2206 37.6539 41.5967 37.7793 41.8683C37.9673 42.2862 37.9464 42.4325 37.6121 42.6624C37.0062 43.0803 37.3405 43.2474 38.0091 42.8504C38.3434 42.6624 38.7404 42.5997 38.9703 42.6832C39.3046 42.8086 39.2628 42.8922 38.5942 43.4564C38.1554 43.8116 37.8837 44.1877 37.9464 44.313C38.03 44.4175 38.427 44.1668 38.8867 43.728L39.7016 42.934V43.6862C39.7016 44.1041 39.8061 44.522 39.9105 44.5847C40.0359 44.6683 40.1195 44.0623 40.1195 42.934V41.137H41.6866C42.5851 41.137 43.2537 41.2206 43.2537 41.346C43.2537 41.4505 43.0239 41.5549 42.7522 41.5549C41.603 41.5549 41.5194 42.8713 42.6269 43.6862C43.2119 44.1041 43.2328 44.1668 42.8985 44.522C42.4179 45.0444 42.1463 44.9817 42.2508 44.3757C42.3343 43.9369 42.2925 43.8743 42 43.9578C41.7493 44.0414 41.6657 43.9578 41.6657 43.6026C41.6866 43.2474 41.5612 43.122 41.2687 43.122C40.6836 43.122 40.7254 43.8951 41.3314 44.1668C41.5821 44.2713 41.7911 44.4802 41.7911 44.6265C41.7911 45.0653 42.5851 45.1488 43.1492 44.7727C43.6298 44.4593 43.7343 44.4593 43.9223 44.71C44.0686 44.919 44.0895 44.8981 43.9641 44.5847C43.8806 44.3548 43.797 43.9787 43.7761 43.728C43.7343 43.1638 43.4836 42.7668 43.2328 42.934C43.1283 42.9967 43.0866 43.1429 43.1701 43.2683C43.2537 43.3937 43.1074 43.4355 42.8149 43.3937C42.4179 43.3519 42.3134 43.2056 42.3134 42.7041C42.3134 42.1609 42.397 42.0773 42.9194 42.0146C43.2955 41.9728 43.5462 41.7848 43.6089 41.534C43.6716 41.3251 43.9015 41.137 44.1104 41.137C44.4656 41.137 44.5074 41.3042 44.5074 42.7877C44.5074 43.7071 44.6119 44.522 44.7164 44.5847C44.8417 44.6683 44.9253 44.0623 44.9253 42.934V41.137H46.2835C47.5998 41.137 47.6416 41.1579 47.6416 41.6803C47.6416 42.14 47.5998 42.1818 47.3491 41.9937C47.1819 41.8475 46.7849 41.7639 46.4506 41.8057C45.97 41.8475 45.8447 41.9728 45.8029 42.537C45.7193 43.331 46.4297 43.9578 47.0357 43.6444C47.5789 43.3519 47.6416 43.3728 47.6416 43.9369C47.6416 44.2295 47.7461 44.522 47.8506 44.5847C47.9759 44.6683 48.0595 44.0623 48.0595 42.934C48.0595 41.2833 48.1013 41.137 48.4774 41.137C48.8535 41.137 48.8953 41.2833 48.8953 42.7877C48.8953 43.7071 48.9998 44.522 49.1043 44.5847C49.2296 44.6683 49.3132 44.0623 49.3132 42.934V41.137H50.4624C51.549 41.137 51.6117 41.1579 51.6117 41.6594C51.6117 42.1191 51.5281 42.1818 50.8803 42.1818C50.3789 42.1818 50.149 42.2862 50.149 42.4743C50.149 42.8713 50.6296 43.1638 50.7341 42.8504C50.7759 42.7041 50.9848 42.5997 51.2147 42.5997C51.549 42.5997 51.6117 42.7459 51.6117 43.519C51.6117 44.0414 51.7161 44.522 51.8206 44.5847C51.946 44.6683 52.0295 44.0623 52.0295 42.934C52.0295 41.8683 52.1131 41.137 52.2385 41.137C52.3639 41.137 52.4474 41.0326 52.4474 40.9281C52.4474 40.8027 50.0863 40.7191 45.7611 40.7191C41.4359 40.7191 39.0747 40.8027 39.0747 40.9281C39.0747 41.0326 39.221 41.137 39.3882 41.137C39.618 41.137 39.7016 41.3669 39.7016 41.8892C39.7016 42.4952 39.6389 42.6206 39.3673 42.5161C39.1792 42.4534 38.9912 42.3907 38.9494 42.3907C38.9076 42.3907 38.8658 42.1191 38.8658 41.8057C38.8658 40.8654 37.9673 40.3012 37.6748 41.0534ZM38.6568 41.5758C38.6568 42.0564 38.0718 42.1191 37.8837 41.6385C37.7584 41.3042 38.1972 40.8654 38.4897 41.0534C38.5733 41.1161 38.6568 41.346 38.6568 41.5758ZM47.4118 42.4743C47.6207 42.725 47.5789 42.8295 47.2446 42.9967C46.5969 43.3519 45.97 43.2892 45.97 42.8504C45.97 42.6415 46.0327 42.3907 46.1163 42.328C46.3461 42.0773 47.161 42.1818 47.4118 42.4743ZM41.5194 43.7698C41.3314 43.9578 40.9344 43.6444 41.0806 43.3937C41.1642 43.2683 41.2896 43.2683 41.4359 43.4146C41.5612 43.5399 41.603 43.6862 41.5194 43.7698Z" fill="black"/>
<path d="M55.8918 40.9279C55.9544 41.0323 56.6649 41.1368 57.4798 41.1368C58.7544 41.1368 58.9215 41.1786 58.9215 41.5338C58.9215 42.0144 57.9812 42.2442 57.438 41.9099C56.9783 41.6174 56.4141 42.0353 56.4141 42.7039C56.4141 43.2472 57.229 44.5218 57.6678 44.6472C57.8559 44.7098 57.7514 44.5009 57.438 44.1457C56.7275 43.3517 56.6022 42.9338 56.9156 42.4741C57.2081 42.0771 57.6678 42.2234 57.6678 42.7248C57.6678 43.1218 58.0021 43.1009 58.1693 42.7039C58.232 42.5368 58.42 42.3905 58.6081 42.3905C58.8379 42.3905 58.9215 42.6412 58.9215 43.4144C58.9215 43.9994 59.026 44.5218 59.1305 44.5845C59.2558 44.668 59.3394 44.0621 59.3394 42.9338C59.3394 41.8681 59.423 41.1368 59.5484 41.1368C59.6737 41.1368 59.7573 41.0323 59.7573 40.9279C59.7573 40.8025 58.9424 40.7189 57.7514 40.7189C56.4768 40.7189 55.8082 40.8025 55.8918 40.9279Z" fill="black"/>
<path d="M69.4755 40.9282C69.5382 41.0326 70.165 41.1371 70.8546 41.1371C72.0247 41.1371 72.0874 41.158 72.0874 41.6595C72.0874 42.1401 72.0247 42.1818 71.0426 42.1818C70.4785 42.1818 69.9979 42.2236 69.9979 42.2863C69.9979 42.349 70.2486 42.6415 70.5829 42.9132C71.0635 43.3311 71.1053 43.4564 70.8546 43.6863C70.6247 43.8952 70.562 43.8952 70.4785 43.6863C70.4158 43.5609 70.2904 43.4355 70.1859 43.4355C69.7471 43.4355 70.0397 43.9997 70.7919 44.5639C71.2725 44.9609 71.4187 45.0235 71.168 44.731C70.8128 44.3131 70.8128 44.2713 71.1262 43.937C71.4396 43.6236 71.4396 43.5609 71.1471 43.1012C70.8337 42.6206 70.8337 42.5997 71.4396 42.5997C72.0247 42.5997 72.0665 42.6415 72.15 43.5818C72.1918 44.2295 72.2336 43.9788 72.2545 42.8505C72.2963 41.1789 72.2963 41.1371 72.8187 41.1371C73.3411 41.1371 73.3411 41.158 73.3411 42.7878C73.3411 43.7072 73.4455 44.5221 73.55 44.5848C73.6754 44.6683 73.759 44.0624 73.759 42.9341V41.1371H74.9082C75.9947 41.1371 76.0574 41.158 76.0574 41.6595C76.0574 42.1192 75.9738 42.1818 75.3261 42.1818C74.8246 42.1818 74.5947 42.2863 74.5947 42.4744C74.5947 42.8714 75.0753 43.1639 75.1798 42.8505C75.2216 42.7042 75.4305 42.5997 75.6604 42.5997C75.9947 42.5997 76.0574 42.746 76.0574 43.5191C76.0574 44.0415 76.1619 44.5221 76.2663 44.5848C76.3917 44.6683 76.4753 44.0624 76.4753 42.9341C76.4753 41.158 76.4753 41.1371 76.9977 41.1371C77.4573 41.1371 77.52 41.2207 77.52 41.8266C77.52 42.2027 77.4156 42.6206 77.3111 42.7251C77.1648 42.8714 77.2275 43.0594 77.52 43.3311C77.8961 43.6654 77.9379 43.6654 77.9379 43.3728C77.9379 43.143 78.1051 43.0176 78.4394 43.0176C78.8782 43.0176 78.9409 43.143 79.0245 43.8534C79.0662 44.3131 79.0036 44.7101 78.8782 44.7519C78.7737 44.7937 78.9618 44.9818 79.3379 45.1698C79.714 45.3788 80.111 45.6922 80.2155 45.8802C80.3408 46.0892 80.4453 46.1519 80.4453 46.0265C80.4453 45.9011 80.2155 45.5877 79.9229 45.3161C79.4424 44.8564 79.4006 44.6683 79.4006 42.9758C79.4006 41.8893 79.4841 41.1371 79.6095 41.1371C79.7349 41.1371 79.8185 41.0326 79.8185 40.9282C79.8185 40.8028 77.9379 40.7192 74.5739 40.7192C71.1471 40.7192 69.3919 40.7819 69.4755 40.9282ZM78.9827 41.8684C78.9827 42.5162 78.92 42.5997 78.4603 42.5997C78.0006 42.5997 77.9379 42.5162 77.9379 41.8684C77.9379 41.2207 78.0006 41.1371 78.4603 41.1371C78.92 41.1371 78.9827 41.2207 78.9827 41.8684Z" fill="black"/>
<path d="M27.7896 43.5815C27.8105 45.0442 29.7537 47.1963 31.9895 48.2829C32.7835 48.659 33.4312 49.0142 33.4312 49.0769C33.4312 49.1396 31.7805 49.3694 29.7746 49.5784C25.721 50.0172 22.942 49.9545 20.2048 49.3903C19.3063 49.2023 18.5123 49.0978 18.4496 49.1396C18.3869 49.2023 18.8048 49.5993 19.369 49.9963C22.9629 52.6708 31.6342 52.629 38.1116 49.9127L39.7414 49.2231L37.443 48.3456C34.9356 47.3844 31.4044 45.5874 29.503 44.3129C27.7687 43.1427 27.7896 43.1636 27.7896 43.5815Z" fill="#FA0005"/>
<path d="M86.1287 44.4175C83.9765 45.8175 80.5289 47.5308 78.0842 48.4711C77.0812 48.8472 76.329 49.2233 76.4126 49.3069C76.8305 49.7248 80.0274 50.8113 82.2632 51.2919C88.0928 52.5665 94.0478 51.9814 96.597 49.892C97.0358 49.5367 97.3492 49.2024 97.3074 49.1606C97.2865 49.1189 96.1791 49.2651 94.8836 49.495C93.5882 49.7248 91.7285 49.9129 90.7465 49.9129C89.0749 49.9129 83.2034 49.3696 82.5348 49.1606C82.3676 49.098 82.8482 48.7636 83.7049 48.3457C84.4989 47.9487 85.6063 47.2592 86.1287 46.7786C87.1525 45.901 88.051 44.3548 87.9257 43.6862C87.863 43.3519 87.6331 43.4563 86.1287 44.4175Z" fill="#FA0005"/>
<path d="M52.2979 48.9723C50.501 49.3066 49.101 49.7454 46.907 50.7066C43.1669 52.3364 40.4505 52.9632 36.5223 53.0886C35.394 53.1304 34.4746 53.1722 34.4746 53.2139C34.4746 53.4647 37.1283 54.3632 38.4864 54.5512C41.7042 55.0109 44.7758 54.3632 50.0413 52.1065C51.9636 51.2707 55.4739 50.1215 56.0381 50.1215C56.5187 50.1215 56.059 50.5185 55.0142 51.0409C53.0501 52.002 49.895 54.1542 48.4533 55.5124L47.116 56.787L48.2443 56.8079C49.3308 56.8079 49.3935 56.7661 50.7517 55.4915C51.5039 54.7811 52.674 53.8408 53.3009 53.4229C54.9725 52.3155 58.2738 50.7484 58.9216 50.7484C59.6738 50.7484 63.017 52.399 64.8557 53.6736C65.6706 54.2378 66.7989 55.1781 67.384 55.7631C68.387 56.7661 68.4496 56.8079 69.578 56.8079L70.7272 56.787L69.3272 55.4706C67.7392 53.9871 65.399 52.3782 63.1632 51.208C62.3274 50.7901 61.6379 50.3514 61.6379 50.2678C61.6379 49.8708 64.6468 50.7692 67.8019 52.1065C73.0883 54.3632 76.1389 55.0109 79.3568 54.5512C80.7149 54.3632 83.3686 53.4647 83.3686 53.2139C83.3686 53.1722 82.5537 53.1304 81.5507 53.0886C77.3926 52.9632 75.0942 52.4617 70.9779 50.7275C66.6109 48.8887 63.9572 48.4081 60.8439 48.9514C59.1096 49.2439 58.7335 49.2648 57.1246 48.9723C54.9934 48.5962 54.3247 48.5962 52.2979 48.9723Z" fill="#FA0005"/>
<path d="M19.7249 60.59C19.2652 61.1124 19.0772 63.3272 19.4115 64.3929C19.5578 64.7899 20.0174 65.3958 20.4771 65.7719C21.0831 66.2525 21.3129 66.5868 21.3129 67.0256C21.3129 68.4465 20.101 68.7599 19.7876 67.4017C19.5995 66.6077 19.307 66.3988 19.0981 66.9421C18.91 67.4226 19.4324 69.2614 19.8503 69.6584C20.7488 70.4733 21.7099 69.4494 21.8771 67.5062C22.0234 65.8764 21.5846 64.6645 20.5816 63.8496C20.0174 63.3899 19.8503 63.1183 19.8503 62.575C19.8503 62.1153 19.9757 61.8228 20.1846 61.7392C20.6234 61.5721 21.104 61.9691 21.104 62.4706C21.104 62.7004 21.2502 62.8676 21.4383 62.8676C21.7308 62.8676 21.7726 62.7004 21.6681 61.9273C21.501 60.3393 20.5398 59.6915 19.7249 60.59Z" fill="black"/>
<path d="M32.6378 60.6735C31.99 61.4884 31.6975 63.3063 31.802 65.7927C31.9273 68.2583 32.2825 69.4284 33.0974 69.8046C34.3093 70.3478 35.1034 68.4673 35.1034 65.0823C35.0825 62.6794 34.8944 61.572 34.3093 60.7989C33.7661 60.0467 33.1601 60.0049 32.6378 60.6735ZM33.975 62.0526C34.2885 62.3869 34.372 62.8884 34.4347 64.4973C34.5392 67.0046 34.2049 68.1957 33.4318 68.1957C33.0139 68.1957 32.8885 68.0285 32.6378 67.2554C32.2617 66.0017 32.4079 62.8675 32.8885 62.1361C33.3064 61.5093 33.4527 61.4884 33.975 62.0526Z" fill="black"/>
<path d="M48.3704 60.4856C47.8689 61.0079 47.6391 61.7392 47.4301 63.4317C47.2421 65.2705 47.4928 68.0286 47.9525 68.9062C48.1405 69.2823 48.5166 69.6793 48.8092 69.8047C49.248 70.0136 49.3942 69.9718 49.9375 69.4494C50.5434 68.8644 50.5643 68.8017 50.5643 66.7958V64.7481H49.833C49.1435 64.7481 49.1017 64.7899 49.1017 65.4794C49.1017 66.0645 49.1853 66.2107 49.5196 66.2107C49.8539 66.2107 49.9375 66.357 49.9375 67.0048C49.9375 68.4674 48.8719 68.8226 48.3495 67.5271C48.0987 66.963 48.0361 66.2107 48.0987 64.6227C48.1614 62.7213 48.2241 62.4079 48.6211 62.0109C49.1435 61.4676 49.6032 61.6766 49.8121 62.575C50.0211 63.3899 50.4599 63.0556 50.4181 62.1154C50.3136 60.6318 49.1644 59.7124 48.3704 60.4856Z" fill="black"/>
<path d="M73.091 60.3601C72.4433 60.7571 72.0254 62.5959 72.0254 64.957C72.0254 67.3599 72.2761 68.5718 72.9448 69.4285C73.5089 70.1389 74.0104 70.118 74.679 69.324C75.1805 68.739 75.2223 68.53 75.2223 66.7122V64.7481H74.491C73.8015 64.7481 73.7597 64.7898 73.7597 65.4794C73.7597 66.0644 73.8432 66.2107 74.1776 66.2107C74.5119 66.2107 74.5955 66.357 74.5955 66.9002C74.5955 68.2793 73.5507 68.7808 72.9866 67.6733C72.6522 67.0256 72.6313 63.3899 72.9448 62.4914C73.3209 61.384 74.1985 61.4258 74.4701 62.575C74.679 63.3899 75.1178 63.0556 75.076 62.1153C74.9716 60.7153 73.9895 59.8378 73.091 60.3601Z" fill="black"/>
<path d="M78.0008 60.9244C77.7292 61.5722 77.7083 61.9483 77.8755 62.9721C78.0635 64.0168 78.0426 64.3303 77.7501 64.8526C77.2695 65.772 77.2904 68.6555 77.7919 69.4077C78.2307 70.0764 78.6277 70.1181 79.2127 69.5331C79.6306 69.1152 79.6515 69.1152 79.9232 69.4913C80.1739 69.8465 80.2157 69.8256 80.3411 69.2823C80.4246 68.948 80.4037 68.4675 80.2575 68.154C80.1112 67.8406 80.0694 67.2555 80.153 66.7123C80.3202 65.6258 80.0694 65.1034 79.7142 65.7929C79.4844 66.2317 79.4635 66.2317 79.2336 65.3959C79.0665 64.7064 79.0874 64.393 79.3172 63.9542C79.7142 63.1811 79.6933 61.196 79.2754 60.611C78.8157 59.9424 78.3769 60.0468 78.0008 60.9244ZM79.1501 61.9065C79.2545 62.4079 79.0247 63.2855 78.7739 63.2855C78.5232 63.2855 78.2725 61.9274 78.4605 61.6139C78.6486 61.3005 79.0665 61.4677 79.1501 61.9065ZM78.8993 66.7332C79.2545 67.7988 79.2545 67.9242 78.9202 68.2376C78.2098 68.9689 77.6665 67.5899 78.0635 66.0436C78.2725 65.2914 78.5232 65.5004 78.8993 66.7332Z" fill="black"/>
<path d="M98.6428 60.7154C97.9742 61.5303 97.8906 62.0736 97.8906 65.0615C97.8906 68.0704 98.1414 69.1569 98.9563 69.7002C99.3951 69.9718 99.5622 69.9927 99.9592 69.7838C100.837 69.3032 101.129 68.4883 101.129 66.5451V64.7481H100.294C99.4786 64.7481 99.4577 64.769 99.4577 65.4794C99.4577 66.0645 99.5413 66.2107 99.8756 66.2107C100.231 66.2107 100.294 66.357 100.294 67.0256C100.294 68.4674 99.1443 68.7808 98.6846 67.4644C98.5384 67.0674 98.4339 65.9391 98.4339 64.957C98.413 62.2198 99.3324 60.7781 100.085 62.387C100.649 63.5989 101.15 62.9929 100.732 61.6139C100.273 60.0885 99.4159 59.7333 98.6428 60.7154Z" fill="black"/>
<path d="M0 64.1629C0 66.2733 0.104474 68.3419 0.208949 68.7598C0.605951 70.1806 1.88054 70.3269 2.4238 69.0105C2.86259 67.9658 2.8417 60.36 2.40291 60.36C2.15217 60.36 2.08949 60.966 2.0477 64.142C1.98501 67.5479 1.94322 67.9658 1.6089 68.1747C1.29548 68.3628 1.17011 68.321 0.919374 68.0076C0.68953 67.6732 0.626846 66.7957 0.626846 63.9749C0.626846 60.9033 0.585056 60.36 0.313423 60.36C0.0417897 60.36 0 60.9242 0 64.1629Z" fill="black"/>
<path d="M3.69946 64.9987C3.72036 68.0076 3.82483 69.6792 3.9711 69.721C4.09646 69.7628 4.18004 68.8225 4.18004 66.9628C4.18004 65.3957 4.26362 64.1211 4.3472 64.1211C4.43078 64.1211 4.786 65.3748 5.14121 66.8793C5.62179 68.9896 5.85163 69.6792 6.12327 69.721C6.45758 69.7836 6.47848 69.3866 6.47848 65.0823C6.47848 61.0705 6.43669 60.3601 6.16506 60.3601C5.91432 60.3601 5.85163 60.8824 5.80984 63.3271L5.74716 66.3151L5.01584 63.3271C4.47257 61.1541 4.20094 60.3601 3.9711 60.3601C3.69946 60.3601 3.65767 60.9869 3.69946 64.9987Z" fill="black"/>
<path d="M7.31445 65.0614C7.31445 69.0941 7.35624 69.7627 7.62788 69.7627C7.89951 69.7627 7.9413 69.0941 7.9413 65.0614C7.9413 61.0286 7.89951 60.36 7.62788 60.36C7.35624 60.36 7.31445 61.0286 7.31445 65.0614Z" fill="black"/>
<path d="M8.44121 60.9242C8.5039 61.2585 8.79642 63.3689 9.10985 65.6255C9.59043 69.0314 9.75759 69.7627 10.0292 69.7627C10.3009 69.7627 10.468 69.0105 10.9486 65.4166C11.262 63.0346 11.5754 60.9242 11.6381 60.7152C11.7008 60.4645 11.6172 60.36 11.3456 60.36C10.9904 60.36 10.9068 60.7152 10.5516 63.7032C10.3426 65.521 10.1128 66.9837 10.0292 66.9419C9.94564 66.9001 9.7158 65.3957 9.50685 63.5987C9.15164 60.6943 9.06806 60.36 8.71285 60.36C8.39942 60.36 8.33674 60.4645 8.44121 60.9242Z" fill="black"/>
<path d="M12.1191 65.0614V69.7627H13.4773H14.8355V69.0523C14.8355 68.3418 14.8146 68.321 13.8534 68.2583L12.8505 68.1956L12.7878 66.8792L12.7251 65.5837H13.6863C14.6265 65.5837 14.6265 65.5837 14.6265 64.8733C14.6265 64.1629 14.6056 64.142 13.7489 64.0793L12.8505 64.0166L12.7878 62.9092L12.7251 61.8227H13.7698H14.8355V61.0913V60.36H13.4773H12.1191V65.0614Z" fill="black"/>
<path d="M15.4629 65.0614C15.4629 69.0941 15.5047 69.7627 15.7763 69.7627C16.0271 69.7627 16.0897 69.4075 16.0897 67.9031C16.0897 66.0643 16.2987 65.5001 16.7584 65.9598C16.8837 66.0852 17.1972 66.9628 17.4479 67.9239C17.7822 69.1985 18.0121 69.6791 18.2837 69.7418C18.618 69.8045 18.6389 69.7 18.5135 68.9269C18.43 68.4254 18.1792 67.4852 17.9494 66.7956C17.5942 65.7091 17.5733 65.521 17.8449 65.2494C18.2628 64.8315 18.4509 63.7241 18.3464 62.2405C18.221 60.6316 17.9912 60.36 16.5912 60.36H15.4629V65.0614ZM17.636 62.157C17.824 62.6376 17.7822 63.7659 17.5733 64.0793C17.4688 64.2465 17.1345 64.33 16.8002 64.2882C16.2569 64.2256 16.1942 64.142 16.1315 63.3062C16.0897 62.8047 16.1106 62.2614 16.1733 62.1152C16.3196 61.7182 17.4688 61.7391 17.636 62.157Z" fill="black"/>
<path d="M22.5664 65.0614C22.5664 69.0941 22.6082 69.7627 22.8798 69.7627C23.1515 69.7627 23.1933 69.0941 23.1933 65.0614C23.1933 61.0286 23.1515 60.36 22.8798 60.36C22.6082 60.36 22.5664 61.0286 22.5664 65.0614Z" fill="black"/>
<path d="M23.8203 61.0913C23.8203 61.7391 23.883 61.8227 24.3427 61.8227H24.8651V65.7927C24.8651 69.1776 24.9068 69.7627 25.1785 69.7627C25.4501 69.7627 25.4919 69.1776 25.4919 65.7927V61.8227H26.0143C26.474 61.8227 26.5366 61.7391 26.5366 61.0913V60.36H25.1785H23.8203V61.0913Z" fill="black"/>
<path d="M27.4969 63.3062C28.0193 65.4375 28.2073 66.7329 28.2073 68.0075C28.2073 69.4284 28.27 69.7627 28.5208 69.7627C28.7715 69.7627 28.8342 69.3866 28.8342 67.5896C28.8342 65.6255 29.3983 62.2614 30.0043 60.7152C30.0879 60.4645 30.0252 60.36 29.7327 60.36C29.3983 60.36 29.2521 60.6525 28.9386 62.0316C28.5834 63.5987 28.2073 64.3927 28.2073 63.5987C28.2073 63.4107 28.0611 62.6167 27.873 61.8018C27.6223 60.6734 27.4551 60.36 27.1626 60.36C26.8283 60.36 26.8492 60.5899 27.4969 63.3062Z" fill="black"/>
<path d="M35.7723 64.9989C35.8349 68.9689 35.8767 69.6584 36.1484 69.6584C36.3991 69.6584 36.4827 69.2614 36.5663 67.6734L36.6707 65.6884L37.3603 65.6257C37.9662 65.5631 38.0289 65.5004 38.0289 64.8317C38.0289 64.1631 37.9871 64.1213 37.2976 64.1213C36.5663 64.1213 36.5663 64.1213 36.5663 63.181C36.5663 62.6587 36.5454 62.1781 36.5245 62.0736C36.4827 61.99 36.8588 61.9065 37.3603 61.8647C38.217 61.802 38.2379 61.7811 38.2379 61.0707V60.3602H36.9842H35.7305L35.7723 64.9989Z" fill="black"/>
<path d="M40.3281 65.0614V69.7627H41.6863H43.0445V69.0523C43.0445 68.3418 43.0236 68.321 42.0624 68.2583L41.0594 68.1956L40.9968 66.8792L40.9341 65.5837H41.8952C42.8355 65.5837 42.8355 65.5837 42.8355 64.8733C42.8355 64.1629 42.8146 64.142 41.9579 64.0793L41.0594 64.0166L40.9968 62.9092L40.9341 61.8227H41.9788H43.0445V61.0913V60.36H41.6863H40.3281V65.0614Z" fill="black"/>
<path d="M43.8167 64.9987C43.8375 68.0076 43.942 69.6792 44.0883 69.721C44.2137 69.7628 44.2972 68.8225 44.2972 66.9628C44.2972 65.3957 44.3808 64.1211 44.4644 64.1211C44.548 64.1211 44.9032 65.3748 45.2584 66.8793C45.739 68.9896 45.9688 69.6792 46.2405 69.721C46.5748 69.7836 46.5957 69.3866 46.5957 65.0823C46.5957 61.0705 46.5539 60.3601 46.2822 60.3601C46.0315 60.3601 45.9688 60.8824 45.927 63.3271L45.8643 66.3151L45.133 63.3271C44.5898 61.1541 44.3181 60.3601 44.0883 60.3601C43.8167 60.3601 43.7749 60.9869 43.8167 64.9987Z" fill="black"/>
<path d="M51.4023 65.0614C51.4023 69.0941 51.4441 69.7627 51.7158 69.7627C51.9874 69.7627 52.0292 69.0941 52.0292 65.0614C52.0292 61.0286 51.9874 60.36 51.7158 60.36C51.4441 60.36 51.4023 61.0286 51.4023 65.0614Z" fill="black"/>
<path d="M52.8633 65.0614C52.8633 69.0941 52.9051 69.7627 53.1767 69.7627C53.4483 69.7627 53.4901 69.2821 53.511 66.7747L53.5319 63.8077L54.2632 66.7747C54.7647 68.8642 55.0781 69.7627 55.2871 69.7627C55.5378 69.7627 55.5796 68.9687 55.5796 65.0614C55.5796 60.8824 55.5378 60.36 55.2453 60.36C54.9528 60.36 54.911 60.6943 54.9737 63.1599C55.0155 64.7061 54.9946 66.0225 54.9319 66.0852C54.8692 66.1688 54.5976 65.2494 54.3468 64.0793C53.5946 60.6525 53.4901 60.36 53.1767 60.36C52.9051 60.36 52.8633 61.0704 52.8633 65.0614Z" fill="black"/>
<path d="M56.5406 64.9988L56.6451 69.6583L57.8779 69.721L59.1316 69.7837V69.0524C59.1316 68.3419 59.1107 68.3211 58.1704 68.2584L57.1884 68.1957V66.942V65.6883L58.0659 65.6256C58.9017 65.5629 58.9226 65.542 58.9226 64.8316C58.9226 64.1421 58.9017 64.1212 58.0868 64.1212H57.251V62.972V61.8228H58.1913C59.1316 61.8228 59.1316 61.8228 59.1316 61.0914V60.3601H57.7943H56.457L56.5406 64.9988Z" fill="black"/>
<path d="M59.9668 65.0614V69.7627H61.2205H62.4742V69.0314C62.4742 68.3001 62.4742 68.3001 61.5339 68.3001H60.5936V66.9419V65.5837H61.4085C62.1817 65.5837 62.2234 65.5419 62.307 64.8524L62.3906 64.1211H61.4921H60.5936V62.9719V61.8227H61.5339C62.4742 61.8227 62.4742 61.8227 62.4742 61.0913V60.36H61.2205H59.9668V65.0614Z" fill="black"/>
<path d="M63.3105 65.0613C63.3105 69.094 63.3523 69.7626 63.624 69.7626C63.8747 69.7626 63.9374 69.4074 63.9374 67.7567C63.9374 65.9598 63.9792 65.7717 64.3135 65.8344C64.5642 65.8762 64.7941 66.3985 65.1702 67.8403C65.5672 69.3865 65.7343 69.7626 66.0478 69.7626C66.5284 69.7626 66.5492 69.9507 65.9224 67.5687C65.4209 65.6463 65.4209 65.5419 65.7552 65.0195C66.1731 64.3717 66.2358 61.8435 65.8597 60.9241C65.6299 60.4017 65.5254 60.3599 64.4598 60.3599H63.3105V65.0613ZM65.4627 62.5539C65.7343 63.536 65.3373 64.33 64.5642 64.33H63.9374V63.0554V61.8017L64.606 61.8644C65.1493 61.9062 65.3165 62.0524 65.4627 62.5539Z" fill="black"/>
<path d="M67.0083 64.9988C67.0292 68.0077 67.1337 69.6793 67.2799 69.721C67.4262 69.7837 67.4889 68.2584 67.4889 65.0824C67.4889 61.4467 67.4262 60.3602 67.2382 60.3602C67.0292 60.3602 66.9665 61.4049 67.0083 64.9988Z" fill="black"/>
<path d="M68.3262 65.0614C68.3262 69.0941 68.368 69.7627 68.6396 69.7627C68.9112 69.7627 68.953 69.303 68.953 66.7956C68.953 65.1658 69.0157 63.8912 69.0784 63.9748C69.162 64.0375 69.5172 65.3539 69.8724 66.8792C70.3739 69.0105 70.6037 69.6791 70.8962 69.7209C71.2306 69.7836 71.2515 69.4284 71.2515 65.0822C71.2515 61.0286 71.2097 60.36 70.938 60.36C70.6664 60.36 70.6246 60.8406 70.6246 63.3271C70.6246 64.9778 70.541 66.1688 70.4366 66.0016C70.353 65.8345 69.9978 64.4972 69.6634 63.0137C69.1829 60.8197 69.0157 60.36 68.7023 60.36C68.3471 60.36 68.3262 60.6943 68.3262 65.0614Z" fill="black"/>
<path d="M82.5332 65.0614C82.5332 69.0941 82.575 69.7627 82.8466 69.7627C83.1183 69.7627 83.16 69.2403 83.16 66.3777C83.16 64.5181 83.2018 63.0554 83.2436 63.0972C83.2854 63.139 83.4317 64.4554 83.5779 66.0016C83.8705 69.4493 83.9332 69.7627 84.2884 69.7627C84.4973 69.7627 84.6436 69.0105 84.8316 66.7329C84.9988 65.0614 85.1868 63.6405 85.2913 63.5778C85.3749 63.5151 85.4585 64.8942 85.4585 66.6076C85.4585 68.5717 85.5421 69.7627 85.6674 69.7627C85.7928 69.7627 85.8764 68.0493 85.8764 65.0614C85.8764 60.4854 85.8764 60.36 85.4585 60.36C84.9152 60.36 84.9152 60.36 84.6018 63.6614C84.4764 65.1867 84.3093 66.3986 84.2466 66.3359C84.1421 66.2315 83.5988 61.7391 83.5779 60.8197C83.5779 60.4645 83.4526 60.36 83.0556 60.36H82.5332V65.0614Z" fill="black"/>
<path d="M87.5498 62.1779C87.4244 63.2017 87.1319 65.1658 86.902 66.5658C86.4215 69.6373 86.4215 69.7627 86.7976 69.7627C86.9856 69.7627 87.1319 69.4075 87.2364 68.718L87.3826 67.6732H88.1766H88.9706L89.1169 68.718C89.2214 69.4075 89.3676 69.7627 89.5557 69.7627C89.9527 69.7627 89.9318 69.3866 89.3258 65.4793C88.5318 60.1093 88.5736 60.36 88.1766 60.36C87.8632 60.36 87.7587 60.6734 87.5498 62.1779ZM88.5736 64.8942C88.7408 66.0016 88.7408 66.0016 88.1766 66.0016H87.6334L87.8841 64.4763C88.2393 62.3659 88.1975 62.345 88.5736 64.8942Z" fill="black"/>
<path d="M90.4746 65.0614C90.4746 69.0941 90.5164 69.7627 90.788 69.7627C91.0597 69.7627 91.1015 69.2821 91.1223 66.7747C91.1432 63.4316 91.2059 63.4942 92.1462 67.715C92.4596 69.1358 92.6895 69.7627 92.8984 69.7627C93.1492 69.7627 93.1909 68.9896 93.1909 65.0614C93.1909 62.0734 93.1074 60.36 92.982 60.36C92.8566 60.36 92.773 61.5301 92.773 63.4316C92.773 65.2494 92.6895 66.3986 92.585 66.2106C92.4805 66.0434 92.2089 64.9987 91.9581 63.9121C91.2059 60.6734 91.1015 60.36 90.788 60.36C90.5164 60.36 90.4746 61.0704 90.4746 65.0614Z" fill="black"/>
<path d="M95.1756 60.6108C95.1339 60.757 94.8413 62.5749 94.5488 64.6435C94.2563 66.712 93.9637 68.718 93.9011 69.0732C93.7966 69.5955 93.8384 69.7627 94.0891 69.7627C94.4234 69.7627 94.6533 69.1567 94.6533 68.2374C94.6533 67.715 94.716 67.6732 95.4891 67.6732C96.2622 67.6732 96.304 67.715 96.4293 68.4463C96.6383 69.6164 96.701 69.7627 97.0771 69.7627C97.3278 69.7627 97.3905 69.6373 97.3069 69.2821C97.2442 69.0314 96.9517 67.2135 96.6592 65.2703C95.8861 60.172 95.9279 60.36 95.5726 60.36C95.4055 60.36 95.2174 60.4854 95.1756 60.6108ZM95.9696 65.2076C96.0741 65.9389 96.0532 66.0016 95.5726 66.0016C95.0294 66.0016 95.0294 66.0016 95.1756 64.5808C95.4264 62.2614 95.5309 62.345 95.9696 65.2076Z" fill="black"/>
<path d="M101.76 65.0614V69.7627H103.118H104.476V69.0523C104.476 68.3418 104.455 68.321 103.494 68.2583L102.491 68.1956L102.428 66.8792L102.366 65.5837H103.327C104.267 65.5837 104.267 65.5837 104.267 64.8733C104.267 64.1629 104.246 64.142 103.39 64.0793L102.491 64.0166L102.428 62.9092L102.366 61.8227H103.41H104.476V61.0913V60.36H103.118H101.76V65.0614Z" fill="black"/>
<path d="M105.1 65.0614C105.1 69.0941 105.141 69.7627 105.413 69.7627C105.685 69.7627 105.726 69.2612 105.726 66.4613C105.747 62.9092 105.998 62.554 106.228 65.7927C106.437 68.8851 106.583 69.7627 106.897 69.7627C107.064 69.7627 107.21 69.3657 107.273 68.6553C107.335 68.0702 107.523 66.4822 107.691 65.1658L107.962 62.7629L108.004 66.2524C108.025 69.2194 108.067 69.7627 108.338 69.7627C108.61 69.7627 108.652 69.0941 108.652 65.0614V60.36H108.15C107.586 60.36 107.503 60.6108 107.273 63.5778C107.043 66.6703 106.876 66.7956 106.583 64.1211C106.207 60.36 106.207 60.36 105.622 60.36H105.1V65.0614Z" fill="black"/>
<path d="M109.488 65.0615V69.7837L110.805 69.721C112.1 69.6583 112.1 69.6583 112.163 68.9688L112.226 68.3002H111.181H110.115V66.9629V65.6047L111.014 65.542C111.829 65.4794 111.891 65.4376 111.954 64.7898C112.017 64.1212 112.017 64.1212 111.076 64.1212H110.115V62.972V61.8228H111.055C111.996 61.8228 111.996 61.8228 111.996 61.0914V60.3601H110.742H109.488V65.0615Z" fill="black"/>
<path d="M112.832 65.0614C112.832 69.0523 112.874 69.7627 113.145 69.7627C113.396 69.7627 113.459 69.2403 113.501 66.7747L113.563 63.8077L114.023 65.6882C114.274 66.712 114.587 68.0702 114.713 68.6553C114.88 69.3657 115.068 69.7627 115.256 69.7627C115.507 69.7627 115.548 68.9687 115.548 65.0614C115.548 62.0734 115.465 60.36 115.339 60.36C115.214 60.36 115.13 61.5301 115.13 63.4316C115.13 65.2285 115.047 66.3986 114.942 66.2106C114.838 66.0434 114.566 64.9987 114.316 63.9121C113.605 60.757 113.459 60.36 113.145 60.36C112.874 60.36 112.832 61.0704 112.832 65.0614Z" fill="black"/>
<path d="M116.174 61.0707C116.174 61.6975 116.257 61.802 116.738 61.8647L117.302 61.9274L117.344 65.7929C117.386 68.8853 117.448 69.6584 117.657 69.6584C117.887 69.6584 117.971 68.8644 118.013 65.7302L118.054 61.8229H118.577C119.036 61.8229 119.099 61.7393 119.099 61.0916V60.3602H117.636H116.174V61.0707Z" fill="black"/>
<path d="M14.0614 72.4791C13.1002 73.0433 12.6615 74.0044 12.6824 75.5298C12.7032 77.6401 13.5808 78.7476 15.2942 78.7476C15.8166 78.7476 16.4643 78.5804 16.8822 78.3297C17.5091 77.9327 17.5509 77.8491 17.5509 76.6581V75.4044H16.4016C15.5449 75.4044 15.2524 75.488 15.2524 75.6969C15.2524 75.9059 15.5241 76.0312 16.0464 76.073C16.736 76.1357 16.8195 76.1984 16.8822 76.8043C17.0076 78.0162 15.2733 78.5804 14.145 77.6819C12.6615 76.5327 13.142 73.1686 14.8345 72.7925C15.5658 72.6254 16.4852 73.1059 16.6524 73.7537C16.7777 74.1716 17.0285 74.2761 17.2165 73.9626C17.4464 73.5865 16.9449 72.7089 16.3181 72.3746C15.4823 71.9567 14.8763 71.9776 14.0614 72.4791Z" fill="black"/>
<path d="M71.8767 72.4373C70.9155 72.9179 70.4141 73.9417 70.4141 75.4671C70.4141 77.6401 71.3125 78.7476 73.0677 78.7476C73.5065 78.7476 74.1751 78.5595 74.5512 78.3297C75.1781 77.9327 75.2199 77.8491 75.2199 76.6581V75.4044H74.196C73.5065 75.4044 73.1304 75.5089 73.0677 75.6969C72.9841 75.9268 73.1513 76.0312 73.7154 76.073C74.405 76.1357 74.4886 76.1984 74.5512 76.8043C74.6766 78.1416 72.7543 78.6222 71.6469 77.5148C71.1036 76.9715 71.0409 76.7625 71.0409 75.6133C71.0409 74.088 71.417 73.2522 72.2946 72.897C73.0886 72.5627 74.008 72.897 74.3423 73.6492C74.6139 74.2134 75.0109 74.3179 75.0109 73.8164C75.0109 73.2731 74.6139 72.7089 73.9662 72.3746C73.1931 71.9776 72.7752 71.9776 71.8767 72.4373Z" fill="black"/>
<path d="M29.2521 73.3149C29.2521 74.297 29.0222 74.6313 28.7297 74.1507C28.479 73.7537 27.6223 73.9417 27.1835 74.485C26.3686 75.5298 26.3477 77.4103 27.1835 78.2879C27.6432 78.7893 28.6043 78.8938 29.0013 78.4968C29.1894 78.3088 29.2521 78.3088 29.2521 78.4968C29.2521 78.6431 29.3983 78.7476 29.5655 78.7476C29.8371 78.7476 29.8789 78.2461 29.8789 75.5089C29.8789 72.7716 29.8371 72.2702 29.5655 72.2702C29.3357 72.2702 29.2521 72.5209 29.2521 73.3149ZM28.876 74.9238C29.6491 75.6133 29.2103 78.3297 28.3118 78.3297C27.7059 78.3297 27.1626 77.4521 27.1626 76.4491C27.1626 74.882 27.9984 74.1298 28.876 74.9238Z" fill="black"/>
<path d="M33.2227 75.5089V78.7476H35.1032C36.6285 78.7476 36.9837 78.6849 36.9837 78.4341C36.9837 78.1834 36.6703 78.1207 35.4166 78.1207H33.8495V76.9715V75.8432L35.2495 75.7805C36.3987 75.7387 36.6703 75.6551 36.733 75.3417C36.7957 75.0283 36.6285 74.9865 35.333 74.9865H33.8495V73.9417V72.897H35.4166C36.6703 72.897 36.9837 72.8343 36.9837 72.5836C36.9837 72.3328 36.6285 72.2702 35.1032 72.2702H33.2227V75.5089Z" fill="black"/>
<path d="M40.5348 73.3149C40.5348 74.4432 40.5139 74.485 39.9288 74.1298C39.3438 73.7537 38.4871 74.0671 38.111 74.8193C37.6722 75.676 37.7976 77.7237 38.3408 78.3297C38.7587 78.7893 39.8871 78.8938 40.2841 78.4968C40.4721 78.3088 40.5348 78.3088 40.5348 78.4968C40.5348 78.6431 40.6393 78.7476 40.7437 78.7476C40.8691 78.7476 40.9527 77.5357 40.9527 75.5089C40.9527 73.4821 40.8691 72.2702 40.7437 72.2702C40.6393 72.2702 40.5348 72.7298 40.5348 73.3149ZM40.096 74.8402C40.8064 75.6969 40.5975 77.7864 39.7617 78.1834C39.302 78.3923 39.1766 78.3506 38.8423 77.9327C38.4035 77.3894 38.299 75.6551 38.6543 74.9656C38.905 74.5059 39.7408 74.4432 40.096 74.8402Z" fill="black"/>
<path d="M56.207 72.6883C56.207 72.9181 56.3533 73.1062 56.5205 73.1062C56.6876 73.1062 56.8339 72.9181 56.8339 72.6883C56.8339 72.4585 56.6876 72.2704 56.5205 72.2704C56.3533 72.2704 56.207 72.4585 56.207 72.6883Z" fill="black"/>
<path d="M86.9233 73.294V74.3179L86.3173 74.088C86.0039 73.9835 85.586 73.9208 85.398 74.0044C84.3323 74.4014 83.9144 76.9297 84.7502 78.058C85.2517 78.7058 86.1502 78.9356 86.6517 78.4968C86.9233 78.2879 87.0069 78.2879 87.0696 78.4759C87.1322 78.6222 87.2576 78.7476 87.3621 78.7476C87.4666 78.7476 87.5501 77.3267 87.5501 75.5089C87.5501 72.7716 87.5084 72.2702 87.2367 72.2702C87.0069 72.2702 86.9233 72.5209 86.9233 73.294ZM86.8397 75.3417C87.3621 76.5745 86.8397 78.3297 85.9621 78.3297C85.4398 78.3297 84.8338 77.264 84.8338 76.3655C84.8338 74.5686 86.2338 73.8582 86.8397 75.3417Z" fill="black"/>
<path d="M92.773 74.6523C92.773 77.4731 92.585 78.1208 91.8328 78.1208C91.4149 78.1208 91.2686 77.9954 91.185 77.494C91.0179 76.7627 90.4746 76.6373 90.4746 77.3477C90.4746 78.6223 92.0417 79.2491 92.8775 78.3298C93.2118 77.9537 93.2745 77.494 93.2954 75.0911C93.3372 72.8344 93.2745 72.2703 93.0656 72.2703C92.8357 72.2703 92.773 72.7926 92.773 74.6523Z" fill="black"/>
<path d="M98.623 75.5089C98.623 77.3267 98.7066 78.7476 98.8111 78.7476C98.9156 78.7476 99.0409 78.6222 99.1036 78.4759C99.1663 78.2879 99.2499 78.2879 99.5215 78.4968C100.023 78.9147 100.921 78.7058 101.423 78.058C102.238 76.9506 101.841 74.4014 100.775 74.0044C100.587 73.9208 100.169 73.9835 99.8558 74.088L99.2499 74.3179V73.294C99.2499 72.5209 99.1663 72.2702 98.9365 72.2702C98.6648 72.2702 98.623 72.7716 98.623 75.5089ZM101.005 75.0283C101.695 76.0103 101.13 78.3297 100.211 78.3297C99.3335 78.3297 98.8111 76.5745 99.3335 75.3417C99.7096 74.4223 100.483 74.2761 101.005 75.0283Z" fill="black"/>
<path d="M54.5977 72.6255C54.4515 72.6881 54.3261 73.0016 54.3261 73.3359C54.3261 73.6702 54.2425 73.9418 54.1172 73.9418C54.0127 73.9418 53.9082 74.0881 53.9082 74.2553C53.9082 74.4224 54.0127 74.5687 54.1172 74.5687C54.2425 74.5687 54.3261 75.3209 54.3261 76.4074C54.3261 77.5566 54.4097 78.3298 54.5768 78.4969C54.9321 78.8521 55.5798 78.8103 55.5798 78.4342C55.5798 78.2671 55.4335 78.1208 55.2664 78.1208C55.0156 78.1208 54.9529 77.7865 54.9529 76.3447C54.9529 74.903 55.0156 74.5687 55.2664 74.5687C55.4335 74.5687 55.5798 74.4224 55.5798 74.2553C55.5798 74.0881 55.4544 73.9418 55.2873 73.9418C55.0992 73.9418 54.9529 73.6911 54.9112 73.2523C54.8694 72.7926 54.7649 72.5837 54.5977 72.6255Z" fill="black"/>
<path d="M19.0767 74.2552C18.5126 74.6522 18.0947 76.0521 18.2618 76.9924C18.4708 78.0998 19.1394 78.7476 20.0379 78.7476C21.1662 78.7476 21.5841 78.2043 21.6886 76.5745C21.7722 75.4044 21.7095 75.2163 21.208 74.6104C20.5812 73.8582 19.808 73.7328 19.0767 74.2552ZM20.7901 74.9865C21.3961 75.6551 21.3334 77.4312 20.7065 77.9327C20.0588 78.4759 19.7454 78.4341 19.223 77.7446C18.8469 77.3058 18.7842 76.9924 18.8678 76.1984C18.9096 75.6551 19.0767 75.0701 19.223 74.882C19.5991 74.4432 20.3513 74.485 20.7901 74.9865Z" fill="black"/>
<path d="M23.2541 74.2551C22.2511 74.9656 22.1258 77.3058 23.0242 78.2669C23.5884 78.852 24.6331 78.8938 25.3018 78.3505C25.6988 78.0371 25.8033 77.7237 25.8659 76.6162C25.9495 75.4043 25.9077 75.2163 25.3854 74.6103C24.7585 73.8581 23.9854 73.7328 23.2541 74.2551ZM24.9048 74.9238C25.448 75.4252 25.4272 77.3476 24.863 77.9117C24.2988 78.4759 23.9436 78.4341 23.4004 77.7446C23.0242 77.3058 22.9616 76.9924 23.0451 76.1983C23.0869 75.6551 23.2541 75.07 23.4004 74.882C23.7347 74.4641 24.4242 74.485 24.9048 74.9238Z" fill="black"/>
<path d="M42.209 76.0105C42.209 77.6194 42.2926 78.1626 42.5433 78.4134C42.9403 78.8104 43.9015 78.8522 44.2776 78.4761C44.5074 78.288 44.5701 78.2671 44.6537 78.4761C44.9462 79.291 45.1343 78.4552 45.1343 76.3448C45.1343 74.8821 45.0507 73.9419 44.9253 73.9419C44.7999 73.9419 44.7164 74.6314 44.7164 75.5926C44.7164 76.9298 44.6328 77.3268 44.2776 77.7865C43.3164 79.0193 42.6269 78.1417 42.6269 75.6762C42.6269 74.6523 42.5433 73.9419 42.4179 73.9419C42.2926 73.9419 42.209 74.7777 42.209 76.0105Z" fill="black"/>
<path d="M47.055 74.0881C46.1566 74.4433 45.8431 77.2223 46.6162 78.2044C47.4102 79.2073 49.3117 78.7058 49.3117 77.4939C49.3117 76.9089 48.9147 76.9716 48.6848 77.5775C48.4341 78.267 47.7237 78.476 47.2013 77.9954C46.6789 77.5357 46.6371 75.4045 47.1386 74.903C47.5774 74.4433 48.2042 74.4851 48.5177 74.9866C48.8102 75.4671 49.3117 75.5507 49.3117 75.1328C49.3117 74.3806 47.9326 73.7329 47.055 74.0881Z" fill="black"/>
<path d="M50.461 74.4641C50.1685 74.7357 49.9386 75.0701 49.9386 75.1954C49.9386 75.5715 50.461 75.4253 50.7326 74.9656C50.9416 74.6522 51.1714 74.5686 51.6729 74.6104C52.2162 74.6522 52.3624 74.7775 52.4042 75.2372C52.4669 75.7178 52.3833 75.8223 51.8819 75.9476C50.5655 76.2402 50.2312 76.4073 49.9595 76.9715C49.7088 77.4939 49.7088 77.6401 49.9595 78.0998C50.3148 78.7267 51.3177 78.9147 52.0699 78.5177C52.4042 78.3297 52.5505 78.3297 52.6132 78.5177C52.655 78.6431 52.8012 78.7476 52.9266 78.7476C53.3236 78.7476 53.1356 74.7775 52.7177 74.297C52.2162 73.7537 51.067 73.8373 50.461 74.4641ZM52.446 77.0133C52.446 78.1416 51.0461 78.8102 50.5655 77.9327C50.273 77.3476 50.5028 76.8879 51.2759 76.679C52.3207 76.3655 52.446 76.4073 52.446 77.0133Z" fill="black"/>
<path d="M56.3533 74.088C56.2697 74.1507 56.207 75.2372 56.207 76.4909C56.207 78.3506 56.2697 78.7476 56.5205 78.7476C56.7712 78.7476 56.8339 78.3506 56.8339 76.3447C56.8339 74.1507 56.7294 73.691 56.3533 74.088Z" fill="black"/>
<path d="M58.4441 74.3596C57.4411 75.1536 57.4829 77.9953 58.5067 78.5386C59.1336 78.8729 60.1365 78.7893 60.5962 78.3296C61.1395 77.7864 61.3067 77.076 61.1604 75.8641C60.9723 74.1925 59.6142 73.4403 58.4441 74.3596ZM60.2619 75.0283C60.7425 75.7178 60.7007 77.3894 60.1783 77.9117C59.259 78.8311 58.2978 77.9953 58.2978 76.3028C58.2978 75.2999 58.7784 74.5686 59.447 74.5686C59.7186 74.5686 60.0947 74.7775 60.2619 75.0283Z" fill="black"/>
<path d="M62.0586 76.3447C62.0586 78.3506 62.1213 78.7476 62.372 78.7476C62.6228 78.7476 62.6854 78.4132 62.6854 76.9924C62.6854 75.1327 62.9362 74.5686 63.7093 74.5686C64.3988 74.5686 64.566 75.0283 64.566 76.9088C64.566 78.455 64.6287 78.7476 64.9003 78.7476C65.1928 78.7476 65.2137 78.455 65.151 76.6372C65.1092 74.8402 65.0257 74.485 64.6913 74.2343C64.1481 73.8582 63.4377 73.8582 63.1033 74.2552C62.9571 74.4223 62.769 74.5686 62.6645 74.5686C62.5601 74.5686 62.4765 74.4223 62.4765 74.2552C62.4765 74.088 62.3929 73.9417 62.2675 73.9417C62.1422 73.9417 62.0586 74.882 62.0586 76.3447Z" fill="black"/>
<path d="M76.5995 74.4642C75.7846 75.3417 75.7846 77.4521 76.5995 78.3506C77.08 78.8939 78.3755 78.8939 78.8561 78.3506C79.3367 77.8282 79.6083 76.5954 79.4621 75.697C79.1904 74.0881 77.5815 73.3985 76.5995 74.4642ZM78.6889 75.2373C79.0859 76.0313 78.9815 77.3477 78.4382 77.9327C77.3308 79.1655 75.9935 77.1387 76.7666 75.3417C77.0382 74.694 77.1845 74.5686 77.7069 74.5686C78.2084 74.5686 78.4173 74.7149 78.6889 75.2373Z" fill="black"/>
<path d="M80.8627 74.3181C80.0269 75.0076 79.9433 77.4314 80.7582 78.3299C81.3433 78.9776 82.597 78.894 83.1402 78.2045C83.9342 77.1807 83.5999 74.4434 82.6388 74.0673C82.0328 73.8375 81.3433 73.942 80.8627 74.3181ZM82.4089 74.6942C82.8477 74.8613 83.182 76.1777 82.994 77.0762C82.8895 77.5568 82.6388 77.912 82.2627 78.1209C81.7403 78.4135 81.6776 78.3926 81.2597 77.9956C80.6747 77.3896 80.5075 76.0732 80.9463 75.2374C81.2806 74.5897 81.7194 74.4225 82.4089 74.6942Z" fill="black"/>
<path d="M94.9663 74.4014C94.3604 74.9447 94.1097 76.0312 94.3186 77.1804C94.5067 78.2043 95.1126 78.7476 96.0111 78.7476C97.3066 78.7476 97.9961 77.473 97.7245 75.6551C97.5782 74.7566 96.7633 73.9417 96.0111 73.9417C95.7395 73.9417 95.2589 74.1507 94.9663 74.4014ZM96.826 75.0283C97.411 75.8432 97.1812 77.6819 96.4499 78.1625C95.6768 78.6849 94.8619 77.8282 94.8619 76.4909C94.8619 75.3208 95.3007 74.5686 96.0111 74.5686C96.2827 74.5686 96.6588 74.7775 96.826 75.0283Z" fill="black"/>
<path d="M103.2 74.1508C102.678 74.4642 102.532 75.3627 102.887 75.9269C103.054 76.1985 103.597 76.5328 104.099 76.7C105.102 77.0343 105.374 77.6194 104.768 78.0582C104.224 78.4552 103.89 78.3925 103.305 77.7656C102.699 77.097 102.386 77.3059 102.824 78.079C103.054 78.4969 103.326 78.6641 103.89 78.7059C104.914 78.7895 105.457 78.476 105.624 77.682C105.812 76.888 105.415 76.4075 104.141 75.9269C103.389 75.6344 103.2 75.4881 103.263 75.112C103.347 74.5478 104.621 74.3389 104.809 74.8612C104.956 75.2373 105.52 75.3209 105.52 74.9866C105.52 74.8612 105.332 74.5896 105.102 74.3598C104.663 73.921 103.765 73.8165 103.2 74.1508Z" fill="black"/>
<path d="M66.4445 78.3297C66.4445 78.5596 66.5489 78.7476 66.6743 78.7476C66.7997 78.7476 66.8415 78.8939 66.7788 79.061C66.34 80.1476 66.34 80.1267 66.7161 79.8132C67.1758 79.4371 67.2176 77.9118 66.7579 77.9118C66.5907 77.9118 66.4445 78.0999 66.4445 78.3297Z" fill="black"/>
</svg>
